<?xml version="1.0" encoding="UTF-8" standalone="no"?>
<!-- Created with Inkscape (http://www.inkscape.org/) -->

<svg
   xmlns:dc="http://purl.org/dc/elements/1.1/"
   xmlns:cc="http://creativecommons.org/ns#"
   xmlns:rdf="http://www.w3.org/1999/02/22-rdf-syntax-ns#"
   xmlns:svg="http://www.w3.org/2000/svg"
   xmlns="http://www.w3.org/2000/svg"
   xmlns:sodipodi="http://sodipodi.sourceforge.net/DTD/sodipodi-0.dtd"
   xmlns:inkscape="http://www.inkscape.org/namespaces/inkscape"
   width="21.1082mm"
   height="20.703878mm"
   viewBox="0 0 21.1082 20.703878"
   version="1.1"
   id="svg1492"
   inkscape:version="0.92.3 (2405546, 2018-03-11)"
   sodipodi:docname="github.svg">
  <defs
     id="defs1486" />
  <sodipodi:namedview
     id="base"
     pagecolor="#ffffff"
     bordercolor="#666666"
     borderopacity="1.0"
     inkscape:pageopacity="0.0"
     inkscape:pageshadow="2"
     inkscape:zoom="0.78339844"
     inkscape:cx="67.792779"
     inkscape:cy="71.935203"
     inkscape:document-units="mm"
     inkscape:current-layer="layer1"
     showgrid="false"
     fit-margin-top="0"
     fit-margin-left="0"
     fit-margin-right="0"
     fit-margin-bottom="0"
     inkscape:window-width="1366"
     inkscape:window-height="705"
     inkscape:window-x="-8"
     inkscape:window-y="-8"
     inkscape:window-maximized="1" />
  <metadata
     id="metadata1489">
    <rdf:RDF>
      <cc:Work
         rdf:about="">
        <dc:format>image/svg+xml</dc:format>
        <dc:type
           rdf:resource="http://purl.org/dc/dcmitype/StillImage" />
        <dc:title></dc:title>
      </cc:Work>
    </rdf:RDF>
  </metadata>
  <g
     inkscape:label="Layer 1"
     inkscape:groupmode="layer"
     id="layer1"
     transform="translate(-30.312184,-147.16231)">
    <path
       sodipodi:nodetypes="ccccccccsscccccccccccccccccccccccccccccccccccccccccccccccccscccccsccccccccccccccccccccccccccccccc"
       inkscape:connector-curvature="0"
       id="path2039"
       d="m 40.865814,147.16231 c -0.0123,2.8e-4 -0.0246,0.002 -0.0366,0.005 -1.373389,0.005 -2.732919,0.27425 -4.001849,0.79986 -1.280381,0.53037 -2.444151,1.30773 -3.424401,2.28776 -0.97995,0.98003 -1.75736,2.14334 -2.28775,3.42375 -0.53036,1.28046 -0.80303,2.65322 -0.80303,4.03912 0.004,2.31147 0.76434,4.55824 2.16772,6.39512 1.27614,1.67026 3.01839,2.91776 5.00041,3.58902 0.6263,0.22398 0.79493,0.29305 0.92717,-0.28026 0.0413,-0.17888 0.0197,-0.45596 0.0197,-0.95276 v -1.08165 c -2.9e-5,-0.10069 -0.0911,-0.1769 -0.190179,-0.15921 l -0.25587,0.0455 c -0.37634,0.067 -1.4155,0.035 -1.817721,-0.0588 -0.418689,-0.0974 -0.886249,-0.38461 -1.065849,-0.62738 -0.0204,-0.0278 -0.0883,-0.14083 -0.16109,-0.27673 -0.0729,-0.13591 -0.1566,-0.30119 -0.23252,-0.46059 -0.287481,-0.60274 -0.58156,-0.95645 -1.299631,-1.56877 -0.0604,-0.0515 -0.0907,-0.0868 -0.11624,-0.11814 0.0428,-0.01 0.0972,-0.0206 0.184501,-0.0253 0.57298,-0.0298 1.11618,0.30859 1.62372,1.07218 0.3273,0.49272 0.76048,0.87346 1.21307,1.04626 0.20411,0.0779 0.480339,0.0968 0.78279,0.0859 0.30249,-0.011 0.6241,-0.0565 0.89211,-0.139 2.19e-4,0 0,0 0,0 l 0.30388,-0.0941 c 0.0519,-0.0161 0.0922,-0.0571 0.107429,-0.1093 l 0.131391,-0.44605 c 0.0721,-0.24572 0.21205,-0.53442 0.31527,-0.66972 0.0618,-0.0809 0.11251,-0.15665 0.148479,-0.22176 0.0181,-0.0325 0.0324,-0.0607 0.0436,-0.096 0.006,-0.0176 0.012,-0.0366 0.012,-0.0708 3.1e-5,-0.0341 -0.0152,-0.10929 -0.0834,-0.14973 -0.0566,-0.0339 -0.0619,-0.0254 -0.0885,-0.0316 -0.0265,-0.006 -0.0578,-0.0125 -0.0935,-0.0189 -0.0714,-0.0129 -0.16051,-0.0266 -0.254,-0.0385 -1.9e-4,0 0,0 0,0 -1.08321,-0.13749 -2.25122,-0.62385 -2.93661,-1.2118 -0.37178,-0.31925 -0.88891,-1.20343 -1.080409,-1.89352 -0.167821,-0.60624 -0.260601,-1.538 -0.217351,-2.19868 0.0572,-0.8727 0.3252,-1.57518 0.85736,-2.25112 l 0.17501,-0.22239 c 0.0326,-0.0414 0.043,-0.0961 0.0278,-0.14658 l -0.106169,-0.35002 c -0.137381,-0.45176 -0.120661,-1.29445 0.0525,-1.88341 l 0.10675,-0.36265 0.266,0.006 c 0.222011,0.006 0.60747,0.10687 1.01153,0.26852 0.404,0.16163 0.83327,0.38205 1.17516,0.61348 l 0.25522,0.17312 c 0.037,0.0251 0.0827,0.0338 0.12639,0.024 l 0.648231,-0.14657 c 1.9e-4,0 0,0 0,0 0.565029,-0.12823 0.77099,-0.14377 1.938379,-0.151 1.1712,-0.007 1.37199,0.005 1.94721,0.12636 0.18066,0.0382 0.34862,0.0741 0.47387,0.10109 0.0626,0.0136 0.11458,0.0252 0.15161,0.0335 0.0184,0.004 0.034,0.008 0.0442,0.0101 0.01,0.003 0.0243,0.007 0.009,0.003 0.0478,0.0151 0.0658,0.008 0.0802,0.006 0.0146,-0.003 0.0239,-0.006 0.0324,-0.008 0.0168,-0.005 0.0294,-0.0111 0.0442,-0.0171 0.0294,-0.0128 0.0632,-0.03 0.10235,-0.0505 0.0784,-0.0413 0.17769,-0.0976 0.28305,-0.16174 0.38767,-0.23646 0.83685,-0.45494 1.23959,-0.61222 0.40277,-0.15728 0.76993,-0.2502 0.94519,-0.2502 0.12506,0 0.1608,0.0125 0.15288,0.008 -0.008,-0.005 0.0149,0.0207 0.0607,0.13458 0.0387,0.0966 0.13231,0.46758 0.18322,0.76322 0,2.1e-4 0,3.2e-4 0,6.4e-4 0.0966,0.55886 0.0825,0.88219 -0.0619,1.43799 l -0.0777,0.302 c -0.0123,0.0478 -0.003,0.0985 0.0278,0.13774 l 0.22873,0.30263 c 0.27147,0.35868 0.54164,0.90999 0.66149,1.34827 0.12642,0.46401 0.17216,1.36281 0.0929,2.01167 -0.2112,1.72353 -0.87178,2.79712 -2.08811,3.43385 -0.27535,0.14434 -0.64739,0.31511 -0.7929,0.36771 -0.16106,0.0581 -0.49095,0.1444 -0.80052,0.21292 -0.30957,0.0685 -0.62552,0.11967 -0.69306,0.12004 -0.12154,6.6e-4 -0.23294,0.003 -0.31909,0.12131 -0.043,0.0592 -0.0487,0.15219 -0.0246,0.21291 0.0239,0.0608 0.0624,0.10074 0.106131,0.13711 0.0152,0.0126 0.121989,0.14736 0.207229,0.29315 0.0852,0.1458 0.16766,0.31482 0.20534,0.42458 -0.004,-0.0125 0.0129,0.072 0.0226,0.18259 0.01,0.11064 0.0191,0.26242 0.0278,0.44984 0.0175,0.37482 0.0324,0.8915 0.043,1.5157 0.0152,0.8989 0.0259,1.3981 0.0455,1.69576 0.0159,0.70397 0.3547,0.56068 0.8846,0.39026 1.98172,-0.67559 3.72268,-1.92739 4.99559,-3.60109 1.39644,-1.83665 2.1532,-4.08067 2.15317,-6.38817 0,-1.38593 -0.27279,-2.75869 -0.80302,-4.03912 -0.53064,-1.28043 -1.30862,-2.44375 -2.28838,-3.42375 -0.98022,-0.98001 -2.14337,-1.75739 -3.42376,-2.28776 -1.28038,-0.53036 -2.65311,-0.80365 -4.03911,-0.80365 z"
       style="color:#000000;font-style:normal;font-variant:normal;font-weight:normal;font-stretch:normal;font-size:medium;line-height:normal;font-family:sans-serif;font-variant-ligatures:normal;font-variant-position:normal;font-variant-caps:normal;font-variant-numeric:normal;font-variant-alternates:normal;font-feature-settings:normal;text-indent:0;text-align:start;text-decoration:none;text-decoration-line:none;text-decoration-style:solid;text-decoration-color:#000000;letter-spacing:normal;word-spacing:normal;text-transform:none;writing-mode:lr-tb;direction:ltr;text-orientation:mixed;dominant-baseline:auto;baseline-shift:baseline;text-anchor:start;white-space:normal;shape-padding:0;clip-rule:nonzero;display:inline;overflow:visible;visibility:visible;opacity:1;isolation:auto;mix-blend-mode:normal;color-interpolation:sRGB;color-interpolation-filters:linearRGB;solid-color:#000000;solid-opacity:1;vector-effect:none;fill:#ffffff;fill-opacity:1;fill-rule:nonzero;stroke:none;stroke-width:0.32348359;stroke-linecap:round;stroke-linejoin:round;stroke-miterlimit:4;stroke-dasharray:none;stroke-dashoffset:0;stroke-opacity:1;color-rendering:auto;image-rendering:auto;shape-rendering:auto;text-rendering:auto;enable-background:accumulate" />
  </g>
</svg>
